<?xml version="1.0" encoding="UTF-8"?>
<svg xmlns="http://www.w3.org/2000/svg" version="1.1" viewBox="0 0 792 576">
  <defs>
    <style>
      .cls-1 {
        fill: #a8d3f1;
      }
    </style>
  </defs>
  <!-- Generator: Adobe Illustrator 28.7.1, SVG Export Plug-In . SVG Version: 1.2.0 Build 142)  -->
  <g>
    <g id="Layer_1">
      <g>
        <path class="cls-1" d="M417.83,453.31l-138.06-124.45c-18.65-16.81-31.13-30.79-32.68-60.53-1.3-25.17,7.09-45.95,25.25-66.11,10.03-11.13,20.24-18.83,37.49-23.45,30.24-8.1,57.54,5.3,59.24,6.14,7.27,3.65,50.61,41.75,56.51,47.53-8.05,6.56-34.63,32.72-39.88,39.25-11-9.94-20.82-17.74-28.49-23.5-13.64-10.24-19.99-13.83-27.21-12.55-4.55.81-9.84,3.67-12.56,6.67-2.98,3.31-4.74,8.27-4.83,12,.14,8.31,9.25,18.16,15.27,23.58l136.86,123.37-46.91,52.04Z"/>
        <path class="cls-1" d="M373.62,390.71l120.36-129.62-65.07-60.42,42.7-45.98,119.19,110.67-164.36,177-52.82-51.65Z"/>
      </g>
    </g>
  </g>
</svg>